Coordinates
version=1
nRows=14
nColumns=24
inDegrees=yes

Units are S.I. units (second, meters, Newtons, ...)
Angles are in degrees.

endheader
time	pelvis_tilt	pelvis_list	pelvis_rotation	pelvis_tx	pelvis_ty	pelvis_tz	hip_flexion_r	hip_adduction_r	hip_rotation_r	knee_angle_r	ankle_angle_r	subtalar_angle_r	mtp_angle_r	hip_flexion_l	hip_adduction_l	hip_rotation_l	knee_angle_l	ankle_angle_l	subtalar_angle_l	mtp_angle_l	lumbar_extension	lumbar_bending	lumbar_rotation
      1.10833333	     -0.95133462	     -4.50394466	     -3.52387521	     -0.13478855	      1.05361030	      0.34450895	    -13.04526911	      9.19914699	      2.80870057	     -5.89767188	      5.72628996	     -9.20452900	      7.21721387	     20.28332509	     -2.59630201	     -7.05821924	      6.50204986	      1.90961765	     -0.99450660	      5.18136069	      3.04236626	      8.91249824	      2.37808987
      1.11250000	     -0.96190419	     -4.52092791	     -3.53059221	     -0.12909100	      1.05316388	      0.34440245	    -13.15577760	      9.18975542	      2.84552773	     -6.31365783	      5.69303504	     -9.20801311	      7.21846319	     20.25639843	     -2.55179622	     -6.97924451	      6.35280101	      1.91774565	     -0.93102965	      5.17026360	      3.08132985	      8.89641232	      2.37952813
      1.11666667	     -0.96144053	     -4.53525819	     -3.52922434	     -0.12337968	      1.05274858	      0.34430806	    -13.26436377	      9.18070372	      2.87319181	     -6.75589354	      5.65576979	     -9.20936418	      7.22038562	     20.22124529	     -2.50763649	     -6.86780235	      6.13745066	      1.92944393	     -0.85990558	      5.15895923	      3.11830626	      8.87934631	      2.38314549
      1.12083333	     -0.95634311	     -4.54437463	     -3.52380232	     -0.11762205	      1.05236492	      0.34422175	    -13.36451557	      9.16625838	      2.88579800	     -7.22383531	      5.61011933	     -9.20684238	      7.22293069	     20.17826405	     -2.46195573	     -6.73398545	      5.87047122	      1.93489988	     -0.79243613	      5.14852109	      3.15097531	      8.85738300	      2.38927202
      1.12500000	     -0.94753172	     -4.55410385	     -3.51012246	     -0.11184163	      1.05199962	      0.34413168	    -13.45401224	      9.15385691	      2.88004063	     -7.72433147	      5.55201515	     -9.19876829	      7.22626313	     20.13248340	     -2.41690714	     -6.57838995	      5.55620942	      1.92812897	     -0.73292639	      5.13832395	      3.18115239	      8.83054813	      2.39766386
      1.12916667	     -0.93311654	     -4.55814391	     -3.49948137	     -0.10602844	      1.05167023	      0.34405690	    -13.53236671	      9.13539174	      2.85687213	     -8.25227540	      5.48146409	     -9.18505844	      7.23014720	     20.07272424	     -2.37219831	     -6.40918597	      5.21015414	      1.90077542	     -0.68762423	      5.12938461	      3.21133427	      8.79958539	      2.40787053
      1.13333333	     -0.91853070	     -4.55740462	     -3.48374795	     -0.10018658	      1.05137268	      0.34398736	    -13.59195436	      9.11271590	      2.80145855	     -8.81899894	      5.38991569	     -9.15966496	      7.23532954	     20.00761893	     -2.32396863	     -6.21952215	      4.84225868	      1.84688283	     -0.65725596	      5.11991703	      3.23638387	      8.76167010	      2.42077559
      1.13750000	     -0.93069111	     -4.55889901	     -3.31406260	     -0.09428947	      1.05097735	      0.34356349	    -13.59322657	      9.11631417	      2.43839319	     -9.40601672	      5.14272306	     -8.98891741	      7.25947054	     19.99288294	     -2.21483621	     -5.78651936	      4.43901469	      1.64509591	     -0.71271458	      5.08269577	      3.13785248	      8.76592951	      2.43577290
      1.14166667	     -0.88071294	     -4.54302345	     -3.32682631	     -0.08838754	      1.05080118	      0.34355981	    -13.66314919	      9.06801887	      2.44652101	    -10.03241280	      5.07226725	     -8.96390687	      7.26600029	     19.86505918	     -2.16770840	     -5.63778990	      4.05565197	      1.57262633	     -0.74032984	      5.07563223	      3.24098003	      8.71574097	      2.44806758
      1.14583333	     -0.88019498	     -4.50910998	     -3.17826449	     -0.08236754	      1.05050705	      0.34294967	    -13.63162672	      8.99866812	      1.98072063	    -10.71819209	      4.94563950	     -8.37919168	      7.42415025	     19.74907441	     -2.01609677	     -4.79895388	      3.77236351	      0.97616470	     -1.98057260	      4.93443464	      3.28501415	      8.68261779	      2.38850860
      1.15000000	     -0.87592909	     -4.46460455	     -3.18455023	     -0.07635605	      1.05034154	      0.34285424	    -13.59727448	      8.91143959	      1.81967400	    -11.44160611	      4.75215157	     -8.34221654	      7.45184826	     19.65031288	     -1.93225732	     -4.65428591	      3.39831214	      0.73361340	     -2.00361368	      4.91351039	      3.28135514	      8.60417762	      2.39737978
      1.15416667	     -0.83468978	     -4.42760605	     -3.07789883	     -0.07033018	      1.05020116	      0.34258090	    -13.58845138	      8.85104174	      1.53926406	    -12.16220930	      4.41422458	     -8.10856677	      7.52479578	     19.52272879	     -1.81869947	     -4.35714865	      3.02788809	      0.22777552	     -2.28910005	      4.87170108	      3.36522185	      8.51760773	      2.42498374
      1.15833333	     -0.79038124	     -4.38650993	     -3.13499556	     -0.06435028	      1.05018981	      0.34260402	    -13.55414814	      8.75317132	      1.49218158	    -12.97577529	      4.31289544	     -8.09998676	      7.53582338	     19.34714736	     -1.76902614	     -4.20770173	      2.68492332	      0.12303866	     -2.30422077	      4.86763190	      3.42332398	      8.44416591	      2.43490053
      1.16250000	     -0.76601129	     -4.27161394	     -3.02995002	     -0.05806540	      1.05012881	      0.34204234	    -13.47662776	      8.56721892	      0.99797211	    -13.78562886	      3.83156209	     -7.52900939	      7.69488037	     19.15085112	     -1.55253893	     -3.61576593	      2.46583952	     -0.80354459	     -3.18499531	      4.81362903	      3.48561857	      8.36056979	      2.46211644
